<svg version="1.1" id="Layer_1" xmlns="http://www.w3.org/2000/svg" x="0px" y="0px" viewBox="0 0 30 30" xml:space="preserve" xmlns:m="https://www.mapbox.com"><g id="XMLID_2_"><g><path style="fill:#0F86BD;" d="M15,28.9c-1.6-3-8-9.4-9.9-13.5c-0.6-1.3-1-2.7-1-4.2C4.2,5.7,9.1,1.1,15,1.1s10.9,4.6,10.9,10.1 c0,1.5-0.4,2.9-1,4.2l0,0C23,19.5,16.6,25.9,15,28.9L15,28.9z"/></g><g><path style="fill:none;stroke:#87C2DE;stroke-width:2;stroke-linecap:round;stroke-miterlimit:10;" d="M5.1,15.4 c-0.6-1.3-1-2.7-1-4.2C4.2,5.7,9.1,1.1,15,1.1s10.9,4.6,10.9,10.1c0,1.5-0.4,2.9-1,4.2"/><line style="fill:none;stroke:#87C2DE;stroke-width:2;stroke-linecap:round;stroke-miterlimit:10;" x1="15.1" y1="28.9" x2="15.1" y2="28.9"/><path style="fill:none;stroke:#87C2DE;stroke-width:2;stroke-linecap:round;stroke-miterlimit:10;" d="M5.1,15.4 c1.9,4.1,8.3,10.5,9.9,13.5"/><path style="fill:none;stroke:#87C2DE;stroke-width:2;stroke-linecap:round;stroke-miterlimit:10;" d="M24.9,15.4 c-1.9,4.1-8.3,10.5-9.9,13.5h0v0"/></g></g><m:metadata><m:parameters><m:parameter m:name="color-1" m:type="color" m:value="#0F86BD"/><m:parameter m:name="color-2" m:type="color" m:value="#87C2DE"/></m:parameters></m:metadata></svg>